<svg xmlns="http://www.w3.org/2000/svg" viewBox="0 0 1600 960" width="100%" height="100%" style="background:#090d16; font-family:-apple-system, BlinkMacSystemFont, 'Segoe UI', Roboto, Helvetica, Arial, sans-serif;">
  <defs>
    <!-- Background grid -->
    <pattern id="grid" width="40" height="40" patternUnits="userSpaceOnUse">
      <path d="M 40 0 L 0 0 0 40" fill="none" stroke="rgba(255, 255, 255, 0.03)" stroke-width="1" />
    </pattern>

    <!-- Gradients -->
    <linearGradient id="blueGlow" x1="0%" y1="0%" x2="100%" y2="100%">
      <stop offset="0%" stop-color="#38bdf8" stop-opacity="0.8"/>
      <stop offset="100%" stop-color="#0284c7" stop-opacity="0.3"/>
    </linearGradient>

    <linearGradient id="purpleGlow" x1="0%" y1="0%" x2="100%" y2="100%">
      <stop offset="0%" stop-color="#a855f7" stop-opacity="0.8"/>
      <stop offset="100%" stop-color="#6366f1" stop-opacity="0.3"/>
    </linearGradient>

    <linearGradient id="amberGlow" x1="0%" y1="0%" x2="100%" y2="100%">
      <stop offset="0%" stop-color="#f59e0b" stop-opacity="0.8"/>
      <stop offset="100%" stop-color="#d97706" stop-opacity="0.3"/>
    </linearGradient>

    <linearGradient id="emeraldGlow" x1="0%" y1="0%" x2="100%" y2="100%">
      <stop offset="0%" stop-color="#10b981" stop-opacity="0.8"/>
      <stop offset="100%" stop-color="#059669" stop-opacity="0.3"/>
    </linearGradient>

    <!-- Card Background Gradient -->
    <linearGradient id="cardBg" x1="0%" y1="0%" x2="0%" y2="100%">
      <stop offset="0%" stop-color="rgba(30, 41, 59, 0.7)"/>
      <stop offset="100%" stop-color="rgba(15, 23, 42, 0.85)"/>
    </linearGradient>

    <!-- Header Gradient -->
    <linearGradient id="titleGrad" x1="0%" y1="0%" x2="100%" y2="0%">
      <stop offset="0%" stop-color="#38bdf8"/>
      <stop offset="50%" stop-color="#818cf8"/>
      <stop offset="100%" stop-color="#c084fc"/>
    </linearGradient>

    <!-- Drop Shadows & Glows -->
    <filter id="cardShadow" x="-10%" y="-10%" width="120%" height="125%">
      <feDropShadow dx="0" dy="12" stdDeviation="16" flood-color="#000000" flood-opacity="0.5"/>
    </filter>
    <filter id="glowCyan" x="-20%" y="-20%" width="140%" height="140%">
      <feGaussianBlur stdDeviation="8" result="blur" />
      <feComposite in="SourceGraphic" in2="blur" operator="over" />
    </filter>

    <!-- Markers -->
    <marker id="arrow" viewBox="0 0 10 10" refX="6" refY="5" markerWidth="6" markerHeight="6" orient="auto-start-reverse">
      <path d="M 0 1.5 L 8 5 L 0 8.5 z" fill="#38bdf8" />
    </marker>
    <marker id="arrowPurple" viewBox="0 0 10 10" refX="6" refY="5" markerWidth="6" markerHeight="6" orient="auto-start-reverse">
      <path d="M 0 1.5 L 8 5 L 0 8.5 z" fill="#a855f7" />
    </marker>
    <marker id="arrowGreen" viewBox="0 0 10 10" refX="6" refY="5" markerWidth="6" markerHeight="6" orient="auto-start-reverse">
      <path d="M 0 1.5 L 8 5 L 0 8.5 z" fill="#10b981" />
    </marker>
  </defs>

  <!-- Background Grid & Glows -->
  <rect width="1600" height="960" fill="#090d16" />
  <rect width="1600" height="960" fill="url(#grid)" />
  
  <circle cx="200" cy="150" r="220" fill="#0284c7" opacity="0.08" filter="blur(60px)" />
  <circle cx="800" cy="480" r="300" fill="#6366f1" opacity="0.07" filter="blur(80px)" />
  <circle cx="1400" cy="750" r="250" fill="#059669" opacity="0.08" filter="blur(70px)" />

  <!-- ==================== HEADER ==================== -->
  <g transform="translate(60, 45)">
    <text x="0" y="28" fill="url(#titleGrad)" font-size="26" font-weight="700" letter-spacing="-0.5">OCEANUS RO DIGITAL TWIN</text>
    <text x="0" y="52" fill="#94a3b8" font-size="14" font-weight="400">Enterprise Cloud Architecture • Google Cloud Platform &amp; Multi-Agent Intelligence</text>
    <rect x="1330" y="8" width="150" height="34" rx="17" fill="rgba(56, 189, 248, 0.1)" stroke="#38bdf8" stroke-width="1"/>
    <circle cx="1348" cy="25" r="4" fill="#38bdf8" filter="url(#glowCyan)"/>
    <text x="1360" y="30" fill="#38bdf8" font-size="12" font-weight="600">REGION: us-central1</text>
  </g>

  <!-- ==================== FLOW CONNECTORS (WIRES) ==================== -->
  <!-- Ingestion to BigQuery -->
  <path d="M 270 270 C 330 270, 330 380, 390 380" fill="none" stroke="#38bdf8" stroke-width="2.5" stroke-dasharray="6,4" marker-end="url(#arrow)"/>
  <path d="M 270 450 C 330 450, 330 420, 390 420" fill="none" stroke="#38bdf8" stroke-width="2.5" marker-end="url(#arrow)"/>

  <!-- BigQuery to Router & WaterTAP -->
  <path d="M 670 410 C 730 410, 730 290, 790 290" fill="none" stroke="#a855f7" stroke-width="2.5" marker-end="url(#arrowPurple)"/>
  <path d="M 670 510 C 730 510, 730 650, 790 650" fill="none" stroke="#38bdf8" stroke-width="2.5" marker-end="url(#arrow)"/>

  <!-- Router to Specialists -->
  <path d="M 1070 290 C 1110 290, 1110 210, 1150 210" fill="none" stroke="#a855f7" stroke-width="2" marker-end="url(#arrowPurple)"/>
  <path d="M 1070 290 C 1110 290, 1110 330, 1150 330" fill="none" stroke="#a855f7" stroke-width="2" marker-end="url(#arrowPurple)"/>
  <path d="M 1070 290 C 1110 290, 1110 450, 1150 450" fill="none" stroke="#a855f7" stroke-width="2" marker-end="url(#arrowPurple)"/>
  <path d="M 1070 290 C 1110 290, 1110 570, 1150 570" fill="none" stroke="#a855f7" stroke-width="2" marker-end="url(#arrowPurple)"/>

  <!-- Specialists & WaterTAP into Composer / Next.js -->
  <path d="M 1430 330 C 1470 330, 1470 450, 1470 700 C 1470 750, 1420 780, 1370 780" fill="none" stroke="#10b981" stroke-width="2.5" marker-end="url(#arrowGreen)"/>
  <path d="M 1070 650 C 1110 650, 1110 770, 1150 770" fill="none" stroke="#38bdf8" stroke-width="2.5" marker-end="url(#arrow)"/>

  <!-- Next.js to Serving API -->
  <path d="M 1150 820 C 730 820, 730 820, 670 820" fill="none" stroke="#38bdf8" stroke-width="2" stroke-dasharray="5,4" marker-end="url(#arrow)"/>


  <!-- ==================== COLUMN 1: INGESTION & TELEMETRY ==================== -->
  <g transform="translate(60, 140)">
    <!-- Container Group -->
    <rect width="210" height="740" rx="16" fill="rgba(15, 23, 42, 0.5)" stroke="rgba(56, 189, 248, 0.2)" stroke-width="1"/>
    <text x="20" y="34" fill="#38bdf8" font-size="13" font-weight="700" letter-spacing="1">1. INGESTION &amp; TELEMETRY</text>
    
    <!-- Card: Cloud Storage (Raw) -->
    <g transform="translate(15, 60)" filter="url(#cardShadow)">
      <rect width="180" height="130" rx="12" fill="url(#cardBg)" stroke="#1e293b" stroke-width="1.5"/>
      <rect x="0" y="0" width="180" height="4" rx="2" fill="url(#blueGlow)"/>
      <circle cx="32" cy="32" r="14" fill="rgba(56, 189, 248, 0.15)"/>
      <text x="32" y="37" fill="#38bdf8" font-size="14" text-anchor="middle">📦</text>
      <text x="56" y="32" fill="#f8fafc" font-size="13" font-weight="600">Cloud Storage</text>
      <text x="56" y="47" fill="#64748b" font-size="11">GCS Landing Zone</text>
      <text x="18" y="78" fill="#94a3b8" font-size="11">• 21-Unit OCWD Data</text>
      <text x="18" y="96" fill="#94a3b8" font-size="11">• EIA Electricity Rates</text>
      <text x="18" y="114" fill="#94a3b8" font-size="11">• NOAA Ambient Temp</text>
    </g>

    <!-- Card: PubSub Stream -->
    <g transform="translate(15, 240)" filter="url(#cardShadow)">
      <rect width="180" height="130" rx="12" fill="url(#cardBg)" stroke="#1e293b" stroke-width="1.5"/>
      <rect x="0" y="0" width="180" height="4" rx="2" fill="url(#blueGlow)"/>
      <circle cx="32" cy="32" r="14" fill="rgba(56, 189, 248, 0.15)"/>
      <text x="32" y="37" fill="#38bdf8" font-size="14" text-anchor="middle">⚡</text>
      <text x="56" y="32" fill="#f8fafc" font-size="13" font-weight="600">Cloud Pub/Sub</text>
      <text x="56" y="47" fill="#64748b" font-size="11">Topic: ro-readings</text>
      <text x="18" y="78" fill="#94a3b8" font-size="11">• Accelerated Clock</text>
      <text x="18" y="96" fill="#94a3b8" font-size="11">• Live Telemetry Bus</text>
      <text x="18" y="114" fill="#94a3b8" font-size="11">• SCADA/MQTT Swap-in</text>
    </g>

    <!-- Card: Replay Harness -->
    <g transform="translate(15, 420)" filter="url(#cardShadow)">
      <rect width="180" height="120" rx="12" fill="url(#cardBg)" stroke="#1e293b" stroke-width="1.5"/>
      <rect x="0" y="0" width="180" height="4" rx="2" fill="url(#blueGlow)"/>
      <circle cx="32" cy="32" r="14" fill="rgba(56, 189, 248, 0.15)"/>
      <text x="32" y="37" fill="#38bdf8" font-size="14" text-anchor="middle">⏱️</text>
      <text x="56" y="32" fill="#f8fafc" font-size="13" font-weight="600">Replay Harness</text>
      <text x="56" y="47" fill="#64748b" font-size="11">Cloud Run Job</text>
      <text x="18" y="78" fill="#94a3b8" font-size="11">• 15,624 Historic Rows</text>
      <text x="18" y="96" fill="#94a3b8" font-size="11">• 71 Real CIP Cycles</text>
    </g>

    <!-- Card: Secret Manager -->
    <g transform="translate(15, 590)" filter="url(#cardShadow)">
      <rect width="180" height="110" rx="12" fill="url(#cardBg)" stroke="#1e293b" stroke-width="1.5"/>
      <circle cx="32" cy="32" r="14" fill="rgba(245, 158, 11, 0.15)"/>
      <text x="32" y="37" fill="#f59e0b" font-size="14" text-anchor="middle">🔒</text>
      <text x="56" y="32" fill="#f8fafc" font-size="13" font-weight="600">Secret Manager</text>
      <text x="56" y="47" fill="#64748b" font-size="11">Key Management</text>
      <text x="18" y="76" fill="#94a3b8" font-size="11">• EIA API Credentials</text>
      <text x="18" y="94" fill="#94a3b8" font-size="11">• Least-Privilege IAM</text>
    </g>
  </g>


  <!-- ==================== COLUMN 2: BIGQUERY STORAGE & IN-SQL AI ==================== -->
  <g transform="translate(390, 140)">
    <rect width="280" height="740" rx="16" fill="rgba(15, 23, 42, 0.5)" stroke="rgba(56, 189, 248, 0.2)" stroke-width="1"/>
    <text x="20" y="34" fill="#38bdf8" font-size="13" font-weight="700" letter-spacing="1">2. BIGQUERY STORAGE &amp; AI</text>

    <!-- Dataform Card -->
    <g transform="translate(20, 60)" filter="url(#cardShadow)">
      <rect width="240" height="100" rx="12" fill="url(#cardBg)" stroke="#1e293b" stroke-width="1.5"/>
      <rect x="0" y="0" width="240" height="4" rx="2" fill="url(#blueGlow)"/>
      <text x="20" y="32" fill="#f8fafc" font-size="14" font-weight="600">Dataform SQL Pipelines</text>
      <text x="20" y="52" fill="#64748b" font-size="11">Versioned &amp; tested core transforms</text>
      <text x="20" y="78" fill="#94a3b8" font-size="11">ro_raw ➔ ro_curated ➔ ro_serving</text>
    </g>

    <!-- Warehouse Datasets Card -->
    <g transform="translate(20, 180)" filter="url(#cardShadow)">
      <rect width="240" height="240" rx="12" fill="url(#cardBg)" stroke="rgba(56, 189, 248, 0.4)" stroke-width="1.5"/>
      <rect x="0" y="0" width="240" height="4" rx="2" fill="url(#blueGlow)"/>
      <text x="20" y="32" fill="#f8fafc" font-size="14" font-weight="700">BigQuery Storage Lakehouse</text>
      <text x="20" y="50" fill="#64748b" font-size="11">6 Scoped Datasets (Single Region)</text>
      
      <rect x="16" y="65" width="208" height="26" rx="6" fill="#0f172a"/>
      <text x="26" y="82" fill="#38bdf8" font-size="11" font-weight="600">ro_raw</text>
      <text x="105" y="82" fill="#64748b" font-size="11">Append-only SCADA</text>

      <rect x="16" y="98" width="208" height="26" rx="6" fill="#0f172a"/>
      <text x="26" y="115" fill="#38bdf8" font-size="11" font-weight="600">ro_curated</text>
      <text x="105" y="115" fill="#64748b" font-size="11">Harmonized 21-units</text>

      <rect x="16" y="131" width="208" height="26" rx="6" fill="#0f172a"/>
      <text x="26" y="148" fill="#38bdf8" font-size="11" font-weight="600">ro_serving</text>
      <text x="105" y="148" fill="#64748b" font-size="11">Materialized KPI views</text>

      <rect x="16" y="164" width="208" height="26" rx="6" fill="#0f172a"/>
      <text x="26" y="181" fill="#38bdf8" font-size="11" font-weight="600">ro_simulation</text>
      <text x="105" y="181" fill="#64748b" font-size="11">Physics clean baselines</text>

      <rect x="16" y="197" width="208" height="26" rx="6" fill="#0f172a"/>
      <text x="26" y="214" fill="#38bdf8" font-size="11" font-weight="600">ro_embeddings</text>
      <text x="115" y="214" fill="#64748b" font-size="11">qa_cache &amp; RAG docs</text>
    </g>

    <!-- In-SQL AI Engine Card -->
    <g transform="translate(20, 440)" filter="url(#cardShadow)">
      <rect width="240" height="250" rx="12" fill="url(#cardBg)" stroke="rgba(168, 85, 247, 0.4)" stroke-width="1.5"/>
      <rect x="0" y="0" width="240" height="4" rx="2" fill="url(#purpleGlow)"/>
      <text x="20" y="32" fill="#c084fc" font-size="14" font-weight="700">BigQuery In-SQL AI Engine</text>
      <text x="20" y="50" fill="#64748b" font-size="11">Primary Compute Layer (In-Place)</text>

      <g transform="translate(16, 65)">
        <rect width="208" height="38" rx="6" fill="#0f172a" stroke="#334155" stroke-width="1"/>
        <text x="10" y="18" fill="#f8fafc" font-size="11" font-weight="600">AI.FORECAST (TimesFM)</text>
        <text x="10" y="32" fill="#64748b" font-size="10">Production, SEC &amp; LCOW forecast</text>
      </g>

      <g transform="translate(16, 110)">
        <rect width="208" height="38" rx="6" fill="#0f172a" stroke="#334155" stroke-width="1"/>
        <text x="10" y="18" fill="#f8fafc" font-size="11" font-weight="600">AI.DETECT_ANOMALIES</text>
        <text x="10" y="32" fill="#64748b" font-size="10">Fouling &amp; scaling early warning</text>
      </g>

      <g transform="translate(16, 155)">
        <rect width="208" height="38" rx="6" fill="#0f172a" stroke="#334155" stroke-width="1"/>
        <text x="10" y="18" fill="#f8fafc" font-size="11" font-weight="600">VECTOR_SEARCH</text>
        <text x="10" y="32" fill="#64748b" font-size="10">Cosine cache lookup (&lt; 0.08 hit)</text>
      </g>

      <g transform="translate(16, 200)">
        <rect width="208" height="38" rx="6" fill="#0f172a" stroke="#334155" stroke-width="1"/>
        <text x="10" y="18" fill="#f8fafc" font-size="11" font-weight="600">AI.GENERATE_EMBEDDING</text>
        <text x="10" y="32" fill="#64748b" font-size="10">text-embedding-005 document RAG</text>
      </g>
    </g>
  </g>


  <!-- ==================== COLUMN 3: ORCHESTRATION & PHYSICS ==================== -->
  <g transform="translate(790, 140)">
    <rect width="280" height="740" rx="16" fill="rgba(15, 23, 42, 0.5)" stroke="rgba(168, 85, 247, 0.2)" stroke-width="1"/>
    <text x="20" y="34" fill="#c084fc" font-size="13" font-weight="700" letter-spacing="1">3. AGENT PLATFORM &amp; PHYSICS</text>

    <!-- Router & Coordinator Card -->
    <g transform="translate(20, 60)" filter="url(#cardShadow)">
      <rect width="240" height="230" rx="12" fill="url(#cardBg)" stroke="rgba(168, 85, 247, 0.4)" stroke-width="1.5"/>
      <rect x="0" y="0" width="240" height="4" rx="2" fill="url(#purpleGlow)"/>
      <text x="20" y="32" fill="#f8fafc" font-size="14" font-weight="700">Multi-Agent Coordinator</text>
      <text x="20" y="50" fill="#a855f7" font-size="11" font-weight="600">Gemini 3 Flash (Vertex AI)</text>

      <rect x="16" y="65" width="208" height="45" rx="6" fill="#0f172a"/>
      <text x="26" y="84" fill="#f8fafc" font-size="11" font-weight="600">0ms Heuristic Fast-Path</text>
      <text x="26" y="99" fill="#64748b" font-size="10">Instant bypass for standard ops</text>

      <rect x="16" y="118" width="208" height="45" rx="6" fill="#0f172a"/>
      <text x="26" y="137" fill="#f8fafc" font-size="11" font-weight="600">Structured JSON Schema</text>
      <text x="26" y="152" fill="#64748b" font-size="10">Picks units + specialist fan-out</text>

      <rect x="16" y="171" width="208" height="45" rx="6" fill="#0f172a"/>
      <text x="26" y="190" fill="#f8fafc" font-size="11" font-weight="600">BigQuery MCP Transport</text>
      <text x="26" y="205" fill="#64748b" font-size="10">Secure tools &amp; context isolation</text>
    </g>

    <!-- WaterTAP Physics Card -->
    <g transform="translate(20, 320)" filter="url(#cardShadow)">
      <rect width="240" height="200" rx="12" fill="url(#cardBg)" stroke="rgba(56, 189, 248, 0.4)" stroke-width="1.5"/>
      <rect x="0" y="0" width="240" height="4" rx="2" fill="url(#blueGlow)"/>
      <text x="20" y="32" fill="#f8fafc" font-size="14" font-weight="700">WaterTAP Physics Engine</text>
      <text x="20" y="50" fill="#38bdf8" font-size="11" font-weight="600">Cloud Run (Python 3.11 / FastAPI)</text>
      
      <text x="20" y="80" fill="#94a3b8" font-size="11">• 0D BWRO Deterministic Model</text>
      <text x="20" y="100" fill="#94a3b8" font-size="11">• Pyomo + Ipopt Non-Linear Solver</text>
      <text x="20" y="120" fill="#94a3b8" font-size="11">• Clean-Membrane Baseline ΔP</text>
      <text x="20" y="140" fill="#94a3b8" font-size="11">• What-If Parameter Sweeps</text>
      <text x="20" y="160" fill="#94a3b8" font-size="11">• ~2s Solve Time On-Demand</text>
    </g>

    <!-- Reflexion & HITL Card -->
    <g transform="translate(20, 540)" filter="url(#cardShadow)">
      <rect width="240" height="160" rx="12" fill="url(#cardBg)" stroke="rgba(16, 185, 129, 0.4)" stroke-width="1.5"/>
      <rect x="0" y="0" width="240" height="4" rx="2" fill="url(#emeraldGlow)"/>
      <text x="20" y="32" fill="#34d399" font-size="14" font-weight="700">Reflexion Critic &amp; HITL</text>
      <text x="20" y="50" fill="#64748b" font-size="11">Zero-Hallucination Guardrail</text>
      
      <text x="20" y="78" fill="#94a3b8" font-size="11">• Test-Time Grounding Audit</text>
      <text x="20" y="98" fill="#94a3b8" font-size="11">• [measured] vs [modeled] Tags</text>
      <text x="20" y="118" fill="#94a3b8" font-size="11">• Anti-Actuation Denylist</text>
      <text x="20" y="138" fill="#94a3b8" font-size="11">• Human Approval for Decision Log</text>
    </g>
  </g>


  <!-- ==================== COLUMN 4: SPECIALISTS & FRONTEND ==================== -->
  <g transform="translate(1150, 140)">
    <rect width="390" height="740" rx="16" fill="rgba(15, 23, 42, 0.5)" stroke="rgba(16, 185, 129, 0.2)" stroke-width="1"/>
    <text x="20" y="34" fill="#34d399" font-size="13" font-weight="700" letter-spacing="1">4. SPECIALIST SUB-AGENTS &amp; UI</text>

    <!-- Specialist 1: Data Analyst -->
    <g transform="translate(20, 50)" filter="url(#cardShadow)">
      <rect width="350" height="90" rx="10" fill="url(#cardBg)" stroke="#1e293b" stroke-width="1.2"/>
      <circle cx="28" cy="28" r="12" fill="rgba(56, 189, 248, 0.15)"/>
      <text x="28" y="33" fill="#38bdf8" font-size="12" text-anchor="middle">📊</text>
      <text x="48" y="28" fill="#f8fafc" font-size="13" font-weight="600">Data Analyst Specialist</text>
      <text x="48" y="44" fill="#64748b" font-size="10">Telemetry Trends &amp; Sensor Anomalies</text>
      <text x="20" y="70" fill="#94a3b8" font-size="11">• Normalized Flux &amp; Salt Passage • Attributed Fouling Cycle Analysis</text>
    </g>

    <!-- Specialist 2: Simulation -->
    <g transform="translate(20, 150)" filter="url(#cardShadow)">
      <rect width="350" height="90" rx="10" fill="url(#cardBg)" stroke="#1e293b" stroke-width="1.2"/>
      <circle cx="28" cy="28" r="12" fill="rgba(168, 85, 247, 0.15)"/>
      <text x="28" y="33" fill="#a855f7" font-size="12" text-anchor="middle">🧪</text>
      <text x="48" y="28" fill="#f8fafc" font-size="13" font-weight="600">Simulation Specialist</text>
      <text x="48" y="44" fill="#64748b" font-size="10">WaterTAP Deterministic Physics</text>
      <text x="20" y="70" fill="#94a3b8" font-size="11">• Clean vs Actual ΔP • Membrane Age vs Cycle Days Since Cleaning (DSS)</text>
    </g>

    <!-- Specialist 3: Economics -->
    <g transform="translate(20, 250)" filter="url(#cardShadow)">
      <rect width="350" height="90" rx="10" fill="url(#cardBg)" stroke="#1e293b" stroke-width="1.2"/>
      <circle cx="28" cy="28" r="12" fill="rgba(245, 158, 11, 0.15)"/>
      <text x="28" y="33" fill="#f59e0b" font-size="12" text-anchor="middle">💰</text>
      <text x="48" y="28" fill="#f8fafc" font-size="13" font-weight="600">Economics Specialist</text>
      <text x="48" y="44" fill="#64748b" font-size="10">Delta-First Financial Trade-Offs</text>
      <text x="20" y="70" fill="#94a3b8" font-size="11">• Dynamic Tariff Shift • SEC Penalties • Optimal Clean Net ROI ($/day)</text>
    </g>

    <!-- Specialist 4: Document CRAG -->
    <g transform="translate(20, 350)" filter="url(#cardShadow)">
      <rect width="350" height="90" rx="10" fill="url(#cardBg)" stroke="#1e293b" stroke-width="1.2"/>
      <circle cx="28" cy="28" r="12" fill="rgba(16, 185, 129, 0.15)"/>
      <text x="28" y="33" fill="#10b981" font-size="12" text-anchor="middle">📖</text>
      <text x="48" y="28" fill="#f8fafc" font-size="13" font-weight="600">Document Specialist (CRAG + HyDE)</text>
      <text x="48" y="44" fill="#64748b" font-size="10">Plant SOPs &amp; Chemical Cleaning Protocols</text>
      <text x="20" y="70" fill="#94a3b8" font-size="11">• Colloquial Expansion • Cosine Relevance Gate (Distance &lt;= 0.12)</text>
    </g>

    <!-- Frontend UI / Command Center -->
    <g transform="translate(20, 460)" filter="url(#cardShadow)">
      <rect width="350" height="240" rx="12" fill="url(#cardBg)" stroke="rgba(56, 189, 248, 0.5)" stroke-width="1.5"/>
      <rect x="0" y="0" width="350" height="4" rx="2" fill="url(#blueGlow)"/>
      <text x="20" y="30" fill="#38bdf8" font-size="14" font-weight="700">Next.js 16 Web Command Center</text>
      <text x="20" y="48" fill="#64748b" font-size="11">Cloud Run Service • Server-Sent Events (SSE)</text>

      <g transform="translate(16, 65)">
        <rect width="318" height="45" rx="6" fill="#0f172a" stroke="#334155" stroke-width="1"/>
        <text x="12" y="20" fill="#f8fafc" font-size="11" font-weight="600">21st.dev AITaskList Drawer</text>
        <text x="12" y="35" fill="#64748b" font-size="10">Animated SVG checkmarks, duration tags (420ms)</text>
      </g>

      <g transform="translate(16, 120)">
        <rect width="318" height="45" rx="6" fill="#0f172a" stroke="#334155" stroke-width="1"/>
        <text x="12" y="20" fill="#f8fafc" font-size="11" font-weight="600">2.5D Isometric Visual Fleet Twin</text>
        <text x="12" y="35" fill="#64748b" font-size="10">Real-time status across 21 membrane stages</text>
      </g>

      <g transform="translate(16, 175)">
        <rect width="318" height="45" rx="6" fill="#0f172a" stroke="#334155" stroke-width="1"/>
        <text x="12" y="20" fill="#f8fafc" font-size="11" font-weight="600">4 Operator Personas</text>
        <text x="12" y="35" fill="#64748b" font-size="10">Operator (/twin) • Engineer (/sim) • Manager (/industry)</text>
      </g>
    </g>
  </g>

</svg>
